# xmcd
#
# Track frame offsets:
# 150
# 16702
# 35525
# 54019
# 68287
# 85082
# 97162
# 115924
# 130714
# 147030
# 163365
# 183571
#
# Disc length: 2691 seconds
#
#
# Revision: 0
# Processed by: cddbd v1.5.1PL2 Copyright (c) Steve Scherf et al.
# Submitted via: FreeRIP 2.931 
#
DISCID=930a810c
DTITLE=Roland Kaiser - Roland Kaiser
DYEAR=2000
DGENRE=Schlager
TTITLE0=Alles was Du willst
TTITLE1=Joana
TTITLE2=Wind auf der Haut und Lisa
TTITLE3=Sieben Fässer Wein
TTITLE4=Dich zu Lieben
TTITLE5=Schach matt
TTITLE6=Hier fing alles an
TTITLE7=Amore mio
TTITLE8=Ich glaub es geht schon wieder los
TTITLE9=Manchmal möchte ich schon mit Dir
TTITLE10=Lieb mich ein letztes Mal
TTITLE11=Haut an Haut
EXTD=MediaMarkt Collection
EXTT0=
EXTT1=
EXTT2=
EXTT3=
EXTT4=
EXTT5=
EXTT6=
EXTT7=
EXTT8=
EXTT9=
EXTT10=
EXTT11=
PLAYORDER=
